<?xml version="1.0" encoding="UTF-8" standalone="no"?>
<!DOCTYPE svg PUBLIC "-//W3C//DTD SVG 1.1//EN"
 "http://www.w3.org/Graphics/SVG/1.1/DTD/svg11.dtd">
<!-- Generated by graphviz version 2.50.0 (20211204.2007)
 -->
<!-- Title: controllers_diagram Pages: 1 -->
<svg width="375pt" height="256pt"
 viewBox="0.00 0.00 375.00 256.00" xmlns="http://www.w3.org/2000/svg" xmlns:xlink="http://www.w3.org/1999/xlink">
<g id="graph0" class="graph" transform="scale(1 1) rotate(0) translate(4 252)">
<title>controllers_diagram</title>
<polygon fill="transparent" stroke="transparent" points="-4,4 -4,-252 371,-252 371,4 -4,4"/>
<!-- _diagram_info -->
<g id="node1" class="node">
<title>_diagram_info</title>
<text text-anchor="start" x="161" y="-97.6" font-family="Times,serif" font-size="13.00">Controllers diagram</text>
<text text-anchor="start" x="161" y="-83.6" font-family="Times,serif" font-size="13.00">Date: Jan 10 2022 &#45; 22:06</text>
<text text-anchor="start" x="161" y="-69.6" font-family="Times,serif" font-size="13.00">Migration version: 20220108043807</text>
<text text-anchor="start" x="161" y="-55.6" font-family="Times,serif" font-size="13.00">Generated by RailRoady 1.6.0</text>
<text text-anchor="start" x="161" y="-41.6" font-family="Times,serif" font-size="13.00">http://railroady.prestonlee.com</text>
</g>
<!-- ApplicationController -->
<g id="node2" class="node">
<title>ApplicationController</title>
<path fill="none" stroke="black" d="M165,-153.5C165,-153.5 277,-153.5 277,-153.5 283,-153.5 289,-159.5 289,-165.5 289,-165.5 289,-235.5 289,-235.5 289,-241.5 283,-247.5 277,-247.5 277,-247.5 165,-247.5 165,-247.5 159,-247.5 153,-241.5 153,-235.5 153,-235.5 153,-165.5 153,-165.5 153,-159.5 159,-153.5 165,-153.5"/>
<text text-anchor="middle" x="221" y="-232.3" font-family="Times,serif" font-size="14.00">ApplicationController</text>
<polyline fill="none" stroke="black" points="153,-224.5 289,-224.5 "/>
<polyline fill="none" stroke="black" points="153,-200.5 289,-200.5 "/>
<polyline fill="none" stroke="black" points="153,-176.5 289,-176.5 "/>
<text text-anchor="start" x="161" y="-161.3" font-family="Times,serif" font-size="14.00">_layout</text>
</g>
<!-- ProductsController -->
<g id="node3" class="node">
<title>ProductsController</title>
<path fill="none" stroke="black" d="M12,-0.5C12,-0.5 107,-0.5 107,-0.5 113,-0.5 119,-6.5 119,-12.5 119,-12.5 119,-216.5 119,-216.5 119,-222.5 113,-228.5 107,-228.5 107,-228.5 12,-228.5 12,-228.5 6,-228.5 0,-222.5 0,-216.5 0,-216.5 0,-12.5 0,-12.5 0,-6.5 6,-0.5 12,-0.5"/>
<text text-anchor="middle" x="59.5" y="-213.3" font-family="Times,serif" font-size="14.00">ProductsController</text>
<polyline fill="none" stroke="black" points="0,-205.5 119,-205.5 "/>
<text text-anchor="start" x="8" y="-190.3" font-family="Times,serif" font-size="14.00">update</text>
<text text-anchor="start" x="8" y="-175.3" font-family="Times,serif" font-size="14.00">destroy</text>
<text text-anchor="start" x="8" y="-160.3" font-family="Times,serif" font-size="14.00">download_pdf</text>
<text text-anchor="start" x="8" y="-145.3" font-family="Times,serif" font-size="14.00">edit</text>
<text text-anchor="start" x="8" y="-130.3" font-family="Times,serif" font-size="14.00">index</text>
<text text-anchor="start" x="8" y="-115.3" font-family="Times,serif" font-size="14.00">new</text>
<text text-anchor="start" x="8" y="-100.3" font-family="Times,serif" font-size="14.00">show</text>
<text text-anchor="start" x="8" y="-85.3" font-family="Times,serif" font-size="14.00">create</text>
<polyline fill="none" stroke="black" points="0,-77.5 119,-77.5 "/>
<polyline fill="none" stroke="black" points="0,-53.5 119,-53.5 "/>
<text text-anchor="start" x="8" y="-38.3" font-family="Times,serif" font-size="14.00">_layout</text>
<text text-anchor="start" x="8" y="-23.3" font-family="Times,serif" font-size="14.00">product_params</text>
<text text-anchor="start" x="8" y="-8.3" font-family="Times,serif" font-size="14.00">set_product</text>
</g>
</g>
</svg>
