<?xml version="1.0" encoding="UTF-8" standalone="no"?>
<!DOCTYPE svg PUBLIC "-//W3C//DTD SVG 1.1//EN"
 "http://www.w3.org/Graphics/SVG/1.1/DTD/svg11.dtd">
<!-- Generated by graphviz version 2.50.0 (20211204.2007)
 -->
<!-- Title: models_diagram Pages: 1 -->
<svg width="672pt" height="446pt"
 viewBox="0.00 0.00 672.34 446.00" xmlns="http://www.w3.org/2000/svg" xmlns:xlink="http://www.w3.org/1999/xlink">
<g id="graph0" class="graph" transform="scale(1 1) rotate(0) translate(4 442)">
<title>models_diagram</title>
<polygon fill="transparent" stroke="transparent" points="-4,4 -4,-442 668.34,-442 668.34,4 -4,4"/>
<!-- _diagram_info -->
<g id="node1" class="node">
<title>_diagram_info</title>
<text text-anchor="start" x="8" y="-394.1" font-family="Times,serif" font-size="13.00">Models diagram</text>
<text text-anchor="start" x="8" y="-380.1" font-family="Times,serif" font-size="13.00">Date: Jan 10 2022 &#45; 22:06</text>
<text text-anchor="start" x="8" y="-366.1" font-family="Times,serif" font-size="13.00">Migration version: 20220108043807</text>
<text text-anchor="start" x="8" y="-352.1" font-family="Times,serif" font-size="13.00">Generated by RailRoady 1.6.0</text>
<text text-anchor="start" x="8" y="-338.1" font-family="Times,serif" font-size="13.00">http://railroady.prestonlee.com</text>
</g>
<!-- Inventory -->
<g id="node2" class="node">
<title>Inventory</title>
<path fill="none" stroke="black" d="M244,-301.5C244,-301.5 480,-301.5 480,-301.5 486,-301.5 492,-307.5 492,-313.5 492,-313.5 492,-425.5 492,-425.5 492,-431.5 486,-437.5 480,-437.5 480,-437.5 244,-437.5 244,-437.5 238,-437.5 232,-431.5 232,-425.5 232,-425.5 232,-313.5 232,-313.5 232,-307.5 238,-301.5 244,-301.5"/>
<text text-anchor="middle" x="362" y="-422.3" font-family="Times,serif" font-size="14.00">Inventory</text>
<polyline fill="none" stroke="black" points="232,-414.5 492,-414.5 "/>
<text text-anchor="start" x="240" y="-399.3" font-family="Times,serif" font-size="14.00">id :bigint</text>
<text text-anchor="start" x="240" y="-384.3" font-family="Times,serif" font-size="14.00">quantity :integer</text>
<text text-anchor="start" x="240" y="-369.3" font-family="Times,serif" font-size="14.00">product_id :bigint</text>
<text text-anchor="start" x="240" y="-354.3" font-family="Times,serif" font-size="14.00">kind :character varying</text>
<text text-anchor="start" x="240" y="-339.3" font-family="Times,serif" font-size="14.00">price :numeric</text>
<text text-anchor="start" x="240" y="-324.3" font-family="Times,serif" font-size="14.00">created_at :timestamp(6) without time zone</text>
<text text-anchor="start" x="240" y="-309.3" font-family="Times,serif" font-size="14.00">updated_at :timestamp(6) without time zone</text>
</g>
<!-- Product -->
<g id="node3" class="node">
<title>Product</title>
<path fill="none" stroke="black" d="M244,-128.5C244,-128.5 480,-128.5 480,-128.5 486,-128.5 492,-134.5 492,-140.5 492,-140.5 492,-252.5 492,-252.5 492,-258.5 486,-264.5 480,-264.5 480,-264.5 244,-264.5 244,-264.5 238,-264.5 232,-258.5 232,-252.5 232,-252.5 232,-140.5 232,-140.5 232,-134.5 238,-128.5 244,-128.5"/>
<text text-anchor="middle" x="362" y="-249.3" font-family="Times,serif" font-size="14.00">Product</text>
<polyline fill="none" stroke="black" points="232,-241.5 492,-241.5 "/>
<text text-anchor="start" x="240" y="-226.3" font-family="Times,serif" font-size="14.00">id :bigint</text>
<text text-anchor="start" x="240" y="-211.3" font-family="Times,serif" font-size="14.00">description :character varying</text>
<text text-anchor="start" x="240" y="-196.3" font-family="Times,serif" font-size="14.00">seller_id :bigint</text>
<text text-anchor="start" x="240" y="-181.3" font-family="Times,serif" font-size="14.00">name :character varying</text>
<text text-anchor="start" x="240" y="-166.3" font-family="Times,serif" font-size="14.00">created_at :timestamp(6) without time zone</text>
<text text-anchor="start" x="240" y="-151.3" font-family="Times,serif" font-size="14.00">updated_at :timestamp(6) without time zone</text>
<text text-anchor="start" x="240" y="-136.3" font-family="Times,serif" font-size="14.00">slug :character varying</text>
</g>
<!-- Inventory&#45;&gt;Product -->
<g id="edge1" class="edge">
<title>Inventory&#45;&gt;Product</title>
<path fill="none" stroke="#ba9388" d="M362,-291.12C362,-285.75 362,-280.33 362,-274.95"/>
<polygon fill="#ba9388" stroke="#ba9388" points="362,-291.41 357.5,-301.41 362,-296.41 362,-301.41 362,-301.41 362,-301.41 362,-296.41 366.5,-301.41 362,-291.41 362,-291.41"/>
<polygon fill="#ba9388" stroke="#ba9388" points="362,-274.68 366.5,-264.68 362,-269.68 362,-264.68 362,-264.68 362,-264.68 362,-269.68 357.5,-264.68 362,-274.68 362,-274.68"/>
</g>
<!-- Seller -->
<g id="node4" class="node">
<title>Seller</title>
<path fill="none" stroke="black" d="M244,-0.5C244,-0.5 480,-0.5 480,-0.5 486,-0.5 492,-6.5 492,-12.5 492,-12.5 492,-79.5 492,-79.5 492,-85.5 486,-91.5 480,-91.5 480,-91.5 244,-91.5 244,-91.5 238,-91.5 232,-85.5 232,-79.5 232,-79.5 232,-12.5 232,-12.5 232,-6.5 238,-0.5 244,-0.5"/>
<text text-anchor="middle" x="362" y="-76.3" font-family="Times,serif" font-size="14.00">Seller</text>
<polyline fill="none" stroke="black" points="232,-68.5 492,-68.5 "/>
<text text-anchor="start" x="240" y="-53.3" font-family="Times,serif" font-size="14.00">id :bigint</text>
<text text-anchor="start" x="240" y="-38.3" font-family="Times,serif" font-size="14.00">name :character varying</text>
<text text-anchor="start" x="240" y="-23.3" font-family="Times,serif" font-size="14.00">created_at :timestamp(6) without time zone</text>
<text text-anchor="start" x="240" y="-8.3" font-family="Times,serif" font-size="14.00">updated_at :timestamp(6) without time zone</text>
</g>
<!-- Product&#45;&gt;Seller -->
<g id="edge2" class="edge">
<title>Product&#45;&gt;Seller</title>
<path fill="none" stroke="#cc3fc2" d="M362,-117.97C362,-112.45 362,-106.96 362,-101.61"/>
<polygon fill="#cc3fc2" stroke="#cc3fc2" points="362,-118.2 357.5,-128.2 362,-123.2 362,-128.2 362,-128.2 362,-128.2 362,-123.2 366.5,-128.2 362,-118.2 362,-118.2"/>
<polygon fill="#cc3fc2" stroke="#cc3fc2" points="362,-101.53 366.5,-91.53 362,-96.53 362,-91.53 362,-91.53 362,-91.53 362,-96.53 357.5,-91.53 362,-101.53 362,-101.53"/>
</g>
<!-- ApplicationRecord -->
<g id="node5" class="node">
<title>ApplicationRecord</title>
<ellipse fill="none" stroke="black" cx="587" cy="-369.5" rx="77.19" ry="18"/>
<text text-anchor="middle" x="587" y="-365.8" font-family="Times,serif" font-size="14.00">ApplicationRecord</text>
</g>
</g>
</svg>
