<?xml version="1.0" encoding="UTF-8" standalone="no"?>
<!DOCTYPE svg PUBLIC "-//W3C//DTD SVG 1.1//EN"
 "http://www.w3.org/Graphics/SVG/1.1/DTD/svg11.dtd">
<!-- Generated by graphviz version 2.50.0 (20211204.2007)
 -->
<!-- Title: models_diagram Pages: 1 -->
<svg width="502pt" height="230pt"
 viewBox="0.00 0.00 502.34 230.00" xmlns="http://www.w3.org/2000/svg" xmlns:xlink="http://www.w3.org/1999/xlink">
<g id="graph0" class="graph" transform="scale(1 1) rotate(0) translate(4 226)">
<title>models_diagram</title>
<polygon fill="transparent" stroke="transparent" points="-4,4 -4,-226 498.34,-226 498.34,4 -4,4"/>
<!-- _diagram_info -->
<g id="node1" class="node">
<title>_diagram_info</title>
<text text-anchor="start" x="8" y="-207.6" font-family="Times,serif" font-size="13.00">Models diagram</text>
<text text-anchor="start" x="8" y="-193.6" font-family="Times,serif" font-size="13.00">Date: Jan 10 2022 &#45; 22:06</text>
<text text-anchor="start" x="8" y="-179.6" font-family="Times,serif" font-size="13.00">Migration version: 20220108043807</text>
<text text-anchor="start" x="8" y="-165.6" font-family="Times,serif" font-size="13.00">Generated by RailRoady 1.6.0</text>
<text text-anchor="start" x="8" y="-151.6" font-family="Times,serif" font-size="13.00">http://railroady.prestonlee.com</text>
</g>
<!-- Inventory -->
<g id="node2" class="node">
<title>Inventory</title>
<ellipse fill="none" stroke="black" cx="277" cy="-183" rx="44.69" ry="18"/>
<text text-anchor="middle" x="277" y="-179.3" font-family="Times,serif" font-size="14.00">Inventory</text>
</g>
<!-- Product -->
<g id="node3" class="node">
<title>Product</title>
<ellipse fill="none" stroke="black" cx="277" cy="-90" rx="38.19" ry="18"/>
<text text-anchor="middle" x="277" y="-86.3" font-family="Times,serif" font-size="14.00">Product</text>
</g>
<!-- Inventory&#45;&gt;Product -->
<g id="edge1" class="edge">
<title>Inventory&#45;&gt;Product</title>
<path fill="none" stroke="#bda737" d="M277,-154.55C277,-143.08 277,-129.79 277,-118.34"/>
<polygon fill="#bda737" stroke="#bda737" points="277,-154.88 272.5,-164.88 277,-159.88 277,-164.88 277,-164.88 277,-164.88 277,-159.88 281.5,-164.88 277,-154.88 277,-154.88"/>
<polygon fill="#bda737" stroke="#bda737" points="277,-118.04 281.5,-108.04 277,-113.04 277,-108.04 277,-108.04 277,-108.04 277,-113.04 272.5,-108.04 277,-118.04 277,-118.04"/>
</g>
<!-- Seller -->
<g id="node4" class="node">
<title>Seller</title>
<ellipse fill="none" stroke="black" cx="277" cy="-18" rx="31.4" ry="18"/>
<text text-anchor="middle" x="277" y="-14.3" font-family="Times,serif" font-size="14.00">Seller</text>
</g>
<!-- Product&#45;&gt;Seller -->
<g id="edge2" class="edge">
<title>Product&#45;&gt;Seller</title>
<path fill="none" stroke="#50b3db" d="M277,-61.67C277,-56.69 277,-51.49 277,-46.51"/>
<polygon fill="#50b3db" stroke="#50b3db" points="277,-61.7 272.5,-71.7 277,-66.7 277,-71.7 277,-71.7 277,-71.7 277,-66.7 281.5,-71.7 277,-61.7 277,-61.7"/>
<polygon fill="#50b3db" stroke="#50b3db" points="277,-46.1 281.5,-36.1 277,-41.1 277,-36.1 277,-36.1 277,-36.1 277,-41.1 272.5,-36.1 277,-46.1 277,-46.1"/>
</g>
<!-- ApplicationRecord -->
<g id="node5" class="node">
<title>ApplicationRecord</title>
<ellipse fill="none" stroke="black" cx="417" cy="-183" rx="77.19" ry="18"/>
<text text-anchor="middle" x="417" y="-179.3" font-family="Times,serif" font-size="14.00">ApplicationRecord</text>
</g>
</g>
</svg>
